HIERARCHY
ROOT Hips
{
    OFFSET 0.000000 0.000000 0.000000
    CHANNELS 6 Xposition Yposition Zposition Zrotation Xrotation Yrotation
    JOINT Spine
    {
        OFFSET -0.000000 0.083210 0.000000
        CHANNELS 3 Zrotation Xrotation Yrotation
        JOINT Spine1
        {
            OFFSET -0.000000 0.256334 0.000000
            CHANNELS 3 Zrotation Xrotation Yrotation
            JOINT Neck
            {
                OFFSET -0.000000 0.275576 0.002912
                CHANNELS 3 Zrotation Xrotation Yrotation
                JOINT Head
                {
                    OFFSET -0.000000 0.157287 0.020295
                    CHANNELS 3 Zrotation Xrotation Yrotation
                    End Site
                    {
                        OFFSET -0.000000 0.202951 0.000000
                    }
                }
            }
            JOINT LeftShoulder
            {
                OFFSET 0.041044 0.235234 -0.000041
                CHANNELS 3 Zrotation Xrotation Yrotation
                JOINT LeftArm
                {
                    OFFSET 0.117964 0.000000 0.000000
                    CHANNELS 3 Zrotation Xrotation Yrotation
                    JOINT LeftForeArm
                    {
                        OFFSET 0.291248 0.000000 0.000000
                        CHANNELS 3 Zrotation Xrotation Yrotation
                        JOINT LeftHand
                        {
                            OFFSET 0.245673 0.000000 0.000000
                            CHANNELS 3 Zrotation Xrotation Yrotation
                            End Site
                            {
                                OFFSET 0.152213 0.000000 0.000000
                            }
                        }
                    }
                }
            }
            JOINT RightShoulder
            {
                OFFSET -0.040052 0.235234 -0.000041
                CHANNELS 3 Zrotation Xrotation Yrotation
                JOINT RightArm
                {
                    OFFSET -0.117964 0.000000 0.000000
                    CHANNELS 3 Zrotation Xrotation Yrotation
                    JOINT RightForeArm
                    {
                        OFFSET -0.291248 0.000000 0.000000
                        CHANNELS 3 Zrotation Xrotation Yrotation
                        JOINT RightHand
                        {
                            OFFSET -0.245673 0.000000 0.000000
                            CHANNELS 3 Zrotation Xrotation Yrotation
                            End Site
                            {
                                OFFSET -0.152213 0.000000 0.000000
                            }
                        }
                    }
                }
            }
        }
    }
    JOINT LeftUpLeg
    {
        OFFSET 0.101475 0.000000 0.000000
        CHANNELS 3 Zrotation Xrotation Yrotation
        JOINT LeftLeg
        {
            OFFSET -0.000000 -0.446535 0.000000
            CHANNELS 3 Zrotation Xrotation Yrotation
            JOINT LeftFoot
            {
                OFFSET -0.000000 -0.400037 0.000000
                CHANNELS 3 Zrotation Xrotation Yrotation
                JOINT LeftToeBase
                {
                    OFFSET -0.000000 -0.065959 0.152213
                    CHANNELS 3 Zrotation Xrotation Yrotation
                    End Site
                    {
                        OFFSET -0.000000 0.000000 0.040590
                    }
                }
            }
        }
    }
    JOINT RightUpLeg
    {
        OFFSET -0.101475 0.000000 0.000000
        CHANNELS 3 Zrotation Xrotation Yrotation
        JOINT RightLeg
        {
            OFFSET -0.000000 -0.446535 0.000000
            CHANNELS 3 Zrotation Xrotation Yrotation
            JOINT RightFoot
            {
                OFFSET -0.000000 -0.400037 0.000000
                CHANNELS 3 Zrotation Xrotation Yrotation
                JOINT RightToeBase
                {
                    OFFSET -0.000000 -0.065959 0.152213
                    CHANNELS 3 Zrotation Xrotation Yrotation
                    End Site
                    {
                        OFFSET -0.000000 0.000000 0.040590
                    }
                }
            }
        }
    }
}
MOTION
Frames:    13
Frame Time:    0.008333
-0.410311    0.956236    -0.812216    1.596137    -2.740862    0.410292    -6.576066    -1.367781    -5.290187    0.667059    -2.476860    -1.720256    2.129439    6.528692    0.559621    3.349851    3.995420    0.437868    20.456871    -7.529912    -2.536971    -21.994619    1.850089    6.508007    -0.333509    6.083162    2.002049    -2.157961    6.008777    4.279143    -12.392330    -3.563919    3.277839    22.276516    4.059307    11.384824    -0.978354    6.958492    1.005957    -10.576437    8.340557    -14.888106    2.698909    8.191010    2.289833    -0.332640    2.537069    5.761199    -4.385429    -6.244761    5.625779    0.043321    2.095570    -0.416597    -3.575876    4.491023    5.467213    2.791894    8.562661    2.831901    0.378436    -10.326298    -16.486061    -0.065846    -1.704720    -1.626638    
-0.410327    0.956256    -0.812346    1.586582    -2.732901    0.408849    -6.579551    -1.351724    -5.288311    0.662134    -2.488560    -1.719981    2.146289    6.525239    0.553176    3.343906    4.003410    0.435126    20.470514    -7.527086    -2.543248    -21.993845    1.843942    6.501278    -0.342911    6.101800    1.999845    -1.994456    6.034967    4.203719    -12.382779    -3.583258    3.293738    22.296169    4.093614    11.384537    -0.977225    6.965187    0.975777    -10.595504    8.347801    -14.870550    2.708163    8.179487    2.296450    -0.330048    2.527389    5.756022    -4.391059    -6.237732    5.620850    0.042214    2.096863    -0.405903    -3.564970    4.460099    5.454781    2.792430    8.592504    2.853686    0.372662    -10.332716    -16.494162    -0.065926    -1.706813    -1.627875    
-0.410345    0.956276    -0.812480    1.574961    -2.721521    0.408591    -6.579946    -1.339714    -5.285570    0.658620    -2.498475    -1.719288    2.157057    6.528799    0.546215    3.340402    3.997622    0.430790    20.476154    -7.533450    -2.552956    -21.986750    1.842349    6.496891    -0.343548    6.112017    1.999105    -1.983465    6.045477    4.210731    -12.377558    -3.594619    3.306740    22.322464    4.101464    11.386326    -0.963914    7.025187    0.920455    -10.581461    8.391413    -14.722397    2.720138    8.165097    2.304882    -0.329396    2.515954    5.752853    -4.388754    -6.225533    5.618533    0.043153    2.096594    -0.414938    -3.551545    4.429354    5.444996    2.791527    8.613320    2.850183    0.377113    -10.334642    -16.480036    -0.066096    -1.702483    -1.633599    
-0.410350    0.956291    -0.812603    1.565822    -2.714365    0.412288    -6.581748    -1.324144    -5.283332    0.658069    -2.504568    -1.718838    2.158392    6.519287    0.546868    3.348379    4.004843    0.430057    20.469574    -7.535219    -2.563345    -21.965839    1.832615    6.489219    -0.324915    6.147321    2.007071    -2.167894    6.073664    4.214407    -12.372138    -3.590230    3.311199    22.340973    4.064182    11.398206    -0.946810    7.056709    0.900124    -10.603131    8.424331    -14.711776    2.728550    8.156688    2.304014    -0.326907    2.501175    5.760029    -4.389554    -6.215982    5.607239    0.042292    2.094507    -0.406735    -3.541505    4.406290    5.438615    2.792730    8.630155    2.862315    0.376731    -10.334711    -16.493490    -0.065842    -1.705108    -1.626398    
-0.410347    0.956302    -0.812728    1.558366    -2.705057    0.417579    -6.583772    -1.309855    -5.280408    0.654803    -2.510361    -1.718177    2.160000    6.509509    0.544573    3.359982    4.011566    0.425660    20.463943    -7.536099    -2.577339    -21.947041    1.831334    6.484054    -0.342327    6.142858    2.002431    -2.066523    6.073177    4.215753    -12.359253    -3.577297    3.318819    22.346783    4.003067    11.399788    -0.914525    7.094434    0.897203    -10.615796    8.463532    -14.714400    2.735693    8.145514    2.301740    -0.324856    2.487743    5.752522    -4.390768    -6.207330    5.612078    0.043043    2.098859    -0.413811    -3.534904    4.384041    5.434802    2.795527    8.640812    2.879617    0.371899    -10.329404    -16.510614    -0.066078    -1.709523    -1.630683    
-0.410342    0.956314    -0.812846    1.551862    -2.696772    0.426822    -6.587787    -1.294579    -5.276761    0.652962    -2.514844    -1.717250    2.161148    6.503144    0.537557    3.373212    4.008031    0.416453    20.466476    -7.547654    -2.593554    -21.941467    1.842810    6.483554    -0.377043    6.155975    2.012995    -1.913851    6.092556    4.213695    -12.342720    -3.558857    3.324562    22.341822    3.931734    11.397913    -0.862997    7.152965    0.904632    -10.744452    8.531740    -14.647150    2.740266    8.135897    2.304858    -0.318706    2.471495    5.751584    -4.393221    -6.196092    5.601605    0.042790    2.103877    -0.411206    -3.528426    4.367297    5.427582    2.797099    8.644884    2.874881    0.372611    -10.322670    -16.507782    -0.066127    -1.712581    -1.630820    
-0.410334    0.956324    -0.812965    1.544686    -2.687746    0.439249    -6.589697    -1.279348    -5.274722    0.649748    -2.516559    -1.716927    2.162144    6.485839    0.530133    3.380985    4.017588    0.407082    20.466755    -7.553528    -2.606544    -21.933538    1.851203    6.480267    -0.352574    6.173090    2.019943    -2.056863    6.104012    4.215033    -12.331017    -3.550958    3.322257    22.342352    3.891270    11.398965    -0.836708    7.171996    0.906321    -10.641949    8.542099    -14.697580    2.748990    8.127208    2.300373    -0.319324    2.450119    5.757911    -4.390757    -6.179639    5.587537    0.043073    2.104012    -0.413917    -3.519486    4.353139    5.420148    2.794433    8.642549    2.858948    0.381144    -10.313641    -16.494495    -0.066476    -1.712567    -1.639426    
-0.410317    0.956333    -0.813069    1.539574    -2.679852    0.454175    -6.595532    -1.264579    -5.273142    0.652286    -2.515922    -1.716585    2.160294    6.475131    0.520181    3.380963    4.014914    0.396398    20.463728    -7.561797    -2.625033    -21.927856    1.862835    6.487470    -0.374889    6.142478    2.007067    -1.870792    6.080865    4.196109    -12.322973    -3.547410    3.321409    22.348797    3.866183    11.388812    -0.823317    7.199726    0.925286    -10.661681    8.572617    -14.700869    2.753072    8.119369    2.310853    -0.313849    2.431496    5.743098    -4.393545    -6.166231    5.578021    0.042642    2.104576    -0.409755    -3.514756    4.345893    5.419241    2.795247    8.631027    2.848241    0.385071    -10.303554    -16.495359    -0.066462    -1.711230    -1.639553    
-0.410296    0.956337    -0.813174    1.533351    -2.671847    0.469071    -6.598139    -1.248269    -5.272289    0.651009    -2.516432    -1.716619    2.158509    6.463774    0.512529    3.386435    4.008090    0.387227    20.469736    -7.562116    -2.638137    -21.928499    1.870014    6.488901    -0.391632    6.115202    1.996264    -1.719165    6.059482    4.188561    -12.312785    -3.545060    3.324394    22.361414    3.848670    11.374306    -0.815493    7.237453    0.948152    -10.808856    8.624790    -14.653980    2.758242    8.115916    2.319911    -0.309649    2.402096    5.739546    -4.398259    -6.147938    5.561788    0.043733    2.109891    -0.420056    -3.509713    4.338343    5.418322    2.797659    8.620135    2.841666    0.387843    -10.292675    -16.501724    -0.066564    -1.716860    -1.640092    
-0.410275    0.956341    -0.813278    1.529409    -2.660794    0.484731    -6.605716    -1.235001    -5.271385    0.658148    -2.517033    -1.716405    2.150506    6.453502    0.505168    3.385116    4.001818    0.378279    20.463877    -7.563243    -2.650393    -21.915604    1.868401    6.489057    -0.362470    6.101309    1.980990    -1.871553    6.039401    4.194392    -12.309353    -3.563178    3.328027    22.383413    3.854519    11.354351    -0.822620    7.253862    0.954898    -10.865786    8.647326    -14.641184    2.762009    8.109319    2.330767    -0.306770    2.374959    5.723177    -4.399411    -6.130988    5.552052    0.043581    2.116122    -0.418379    -3.506150    4.330589    5.419854    2.797684    8.603416    2.822716    0.394230    -10.280607    -16.499069    -0.066508    -1.709122    -1.641424    
-0.410238    0.956342    -0.813379    1.527784    -2.649819    0.497714    -6.609359    -1.221399    -5.269336    0.658040    -2.517522    -1.715953    2.143478    6.442359    0.498372    3.378170    3.994474    0.371056    20.464804    -7.556917    -2.658881    -21.913124    1.878148    6.487223    -0.357912    6.093764    1.976946    -1.878218    6.031626    4.186892    -12.296970    -3.561087    3.328241    22.390003    3.850298    11.356001    -0.820793    7.264812    0.948140    -10.887300    8.659758    -14.628871    2.759448    8.105574    2.349278    -0.299887    2.341964    5.706450    -4.398931    -6.112195    5.542544    0.044484    2.119533    -0.426929    -3.506518    4.323306    5.424338    2.798851    8.585744    2.808226    0.399436    -10.265363    -16.500935    -0.066781    -1.717901    -1.645062    
-0.410206    0.956342    -0.813477    1.522691    -2.636257    0.510500    -6.611671    -1.209183    -5.268340    0.661941    -2.519617    -1.715748    2.133307    6.431049    0.494624    3.374505    3.987599    0.365846    20.468376    -7.556068    -2.660855    -21.911371    1.882375    6.480271    -0.367631    6.109481    1.988156    -1.876648    6.047309    4.205707    -12.280305    -3.542308    3.329237    22.382820    3.843097    11.371902    -0.809708    7.258683    0.923283    -10.878831    8.652869    -14.634747    2.761708    8.099719    2.373498    -0.293732    2.309121    5.687366    -4.403656    -6.091936    5.526673    0.044489    2.116679    -0.427074    -3.502218    4.314678    5.428067    2.798682    8.565398    2.792155    0.401993    -10.252555    -16.502031    -0.066508    -1.711078    -1.640731    
-0.410170    0.956344    -0.813568    1.519289    -2.622968    0.520444    -6.611969    -1.199622    -5.264395    0.660122    -2.518833    -1.714649    2.127474    6.422513    0.488870    3.365780    3.980859    0.360258    20.471935    -7.555391    -2.663233    -21.906750    1.893721    6.470962    -0.355797    6.096110    2.002564    -1.930629    6.032314    4.175212    -12.257223    -3.527997    3.323628    22.363085    3.826592    11.393202    -0.765901    7.280471    0.903435    -10.997220    8.685705    -14.597878    2.761634    8.098184    2.403716    -0.288674    2.268968    5.668658    -4.408391    -6.070572    5.508546    0.044952    2.118060    -0.431472    -3.502436    4.306076    5.437884    2.802626    8.545921    2.778366    0.407525    -10.239196    -16.505512    -0.066718    -1.715827    -1.644228    
